<svg version="1.2" xmlns="http://www.w3.org/2000/svg" viewBox="138 335 1716 387" width="1716" height="387">
	<title>Logo_Etune_CMYK</title>
	<style>
		.s0 { fill: #5a92cd } 
		.s1 { fill: #74c057 } 
	</style>
	<g id="Layer 2">
		<path id="&lt;Path&gt;" class="s0" d="m555.4 335.7c-1.3 0-311.1 0-311.1 0 0 0-41.7 4.7-47.4 43.3-5.7 38.6-58.5 289.5-58.5 289.5 0 0 2.1 29.3 35.5 36.8 2.6 0.6 201.2 0 201.2 0l78.7-68.6h-230l23.4-95.3h176.1l14.7-64.8h-179.2l18.4-81h197.8"/>
		<path id="T Path" class="s1" d="m485.3 672l49.7-256.5 96.4-73.6-17 95h164.8l-64.6 61.8h-116l-30.8 134.3h176.5l-74.3 68.7h-154c0 0-25.2-1.4-30.7-29.7z"/>
		<path id="&lt;Path&gt;" class="s1" d="m816.7 437.1h81.3l-47.4 201.3h154.7l31.3-141.7 86.5-62.4-51.5 236.7c0 0-13 29.3-32.1 30.7-19.2 1.4-245.1 0-245.1 0 0 0-20.7 1.7-28.4-24.5z"/>
		<path id="&lt;Path&gt;" class="s1" d="m1118.7 702.3l41.7-224.8 42-40.6h239.5l32.1 32.6-49.2 232.8h-78.2l40.9-197.8h-150.4l-24.1 130.8-86.5 67z"/>
		<path id="&lt;Compound Path&gt;" class="s1" d="m1853.7 654.9v-11.4h-57v-24.3h-24v5.7h-42l-14.8 15.5h-153.5l8.8-39.6h189c18.7 1.6 32.4-19.2 32.4-19.2l21-113.7c-0.5-20.9-21.8-31-21.8-31h-225.6c-37.8 10.3-49.2 39.8-49.2 39.8l-40.9 197.9c8.6 28.5 33.2 28.4 33.2 28.4h205.5l10.7 10.7h49.5v8.3h19.2v-21.2h59.5v-13.2h-59v-32.7zm-262.5-149.9h139.7l-5.9 30h-76.2l-55.4 45.3h-17.2zm166 169.6v14.7l-31.7-29.5 19.6 8v-12.3l33.8 26.2z"/>
	</g>
</svg>